<svg width="36" height="36" viewBox="0 0 36 36" fill="none" xmlns="http://www.w3.org/2000/svg">
<g clip-path="url(#clip0_36_315)">
<path d="M8.88372 30.5046H9.86047C9.86047 30.158 9.63054 29.8442 9.27478 29.7055L8.88372 30.5046ZM27.1163 30.5046L26.7252 29.7055C26.3694 29.8442 26.1395 30.158 26.1395 30.5046H27.1163ZM22.8837 21.686C22.8837 22.1677 23.321 22.5581 23.8605 22.5581C24.3999 22.5581 24.8372 22.1677 24.8372 21.686H22.8837ZM11.1628 21.686C11.1628 22.1677 11.6001 22.5581 12.1395 22.5581C12.679 22.5581 13.1163 22.1677 13.1163 21.686H11.1628ZM11.4884 18.4884C7.35265 18.4884 4 21.4818 4 25.1744H5.95349C5.95349 22.4451 8.43154 20.2326 11.4884 20.2326V18.4884ZM24.5116 20.2326C27.5684 20.2326 30.0465 22.4451 30.0465 25.1744H32C32 21.4818 28.6473 18.4884 24.5116 18.4884V20.2326ZM21.907 38.2558H14.093V40H21.907V38.2558ZM14.093 38.2558C12.8376 38.2558 11.9942 38.254 11.3652 38.1785C10.7642 38.1063 10.507 37.9816 10.3373 37.8301L8.95595 39.0634C9.54912 39.593 10.2873 39.809 11.1049 39.9071C11.8944 40.0019 12.8928 40 14.093 40V38.2558ZM7.90698 34.4767C7.90698 35.5484 7.90491 36.4399 8.01105 37.1448C8.12098 37.8748 8.36278 38.5338 8.95595 39.0634L10.3373 37.8301C10.1676 37.6786 10.0279 37.449 9.94712 36.9123C9.86254 36.3507 9.86047 35.5977 9.86047 34.4767H7.90698ZM26.1395 34.4767C26.1395 35.5977 26.1375 36.3507 26.0529 36.9123C25.9721 37.449 25.8324 37.6786 25.6628 37.8301L27.044 39.0634C27.6372 38.5338 27.8791 37.8748 27.989 37.1448C28.0951 36.4399 28.093 35.5484 28.093 34.4767H26.1395ZM21.907 40C23.1072 40 24.1057 40.0019 24.8952 39.9071C25.7128 39.809 26.4509 39.593 27.044 39.0634L25.6628 37.8301C25.4931 37.9816 25.2359 38.1063 24.6348 38.1785C24.0058 38.254 23.1624 38.2558 21.907 38.2558V40ZM11.4884 20.2326C11.7667 20.2326 12.0396 20.2508 12.3058 20.286L12.5915 18.5605C12.231 18.513 11.8626 18.4884 11.4884 18.4884V20.2326ZM18 15C14.991 15 12.4383 16.735 11.5237 19.1432L13.3737 19.7033C14.0277 17.9814 15.8532 16.7442 18 16.7442V15ZM11.5237 19.1432C11.2894 19.7599 11.1628 20.42 11.1628 21.1047H13.1163C13.1163 20.613 13.2071 20.142 13.3737 19.7033L11.5237 19.1432ZM24.5116 18.4884C24.1375 18.4884 23.769 18.513 23.4086 18.5605L23.6942 20.286C23.9604 20.2508 24.2333 20.2326 24.5116 20.2326V18.4884ZM18 16.7442C20.1468 16.7442 21.9724 17.9814 22.6264 19.7033L24.4763 19.1432C23.5617 16.735 21.009 15 18 15V16.7442ZM22.6264 19.7033C22.7929 20.142 22.8837 20.613 22.8837 21.1047H24.8372C24.8372 20.42 24.7106 19.7599 24.4763 19.1432L22.6264 19.7033ZM9.86047 34.4767V30.5046H7.90698V34.4767H9.86047ZM9.27478 29.7055C7.31792 28.9421 5.95349 27.1995 5.95349 25.1744H4C4 27.9174 5.84995 30.2728 8.49266 31.3037L9.27478 29.7055ZM26.1395 30.5046V34.4767H28.093V30.5046H26.1395ZM30.0465 25.1744C30.0465 27.1995 28.6821 28.9421 26.7252 29.7055L27.5074 31.3037C30.15 30.2728 32 27.9174 32 25.1744H30.0465ZM22.8837 21.1047V21.686H24.8372V21.1047H22.8837ZM11.1628 21.1047V21.686H13.1163V21.1047H11.1628Z" fill="#FF9103"/>
<path d="M27.1163 34.4767H28.093M28.093 34.4767C28.093 35.5484 28.0951 36.4399 27.989 37.1448C27.8791 37.8748 27.6372 38.5338 27.044 39.0634M28.093 34.4767H26.1395M28.093 34.4767V30.5046H26.1395M9.86047 30.5046H8.88372L9.27478 29.7055M9.86047 30.5046C9.86047 30.158 9.63054 29.8442 9.27478 29.7055M9.86047 30.5046V34.4767M9.86047 30.5046H7.90698V34.4767M9.27478 29.7055C7.31792 28.9421 5.95349 27.1995 5.95349 25.1744M9.27478 29.7055L8.49266 31.3037C5.84995 30.2728 4 27.9174 4 25.1744M26.7252 29.7055L27.1163 30.5046H26.1395M26.7252 29.7055C26.3694 29.8442 26.1395 30.158 26.1395 30.5046M26.7252 29.7055C28.6821 28.9421 30.0465 27.1995 30.0465 25.1744M26.7252 29.7055L27.5074 31.3037C30.15 30.2728 32 27.9174 32 25.1744M26.1395 30.5046V34.4767M22.8837 21.686C22.8837 22.1677 23.321 22.5581 23.8605 22.5581C24.3999 22.5581 24.8372 22.1677 24.8372 21.686M22.8837 21.686H24.8372M22.8837 21.686V21.1047M24.8372 21.686V21.1047M11.1628 21.686C11.1628 22.1677 11.6001 22.5581 12.1395 22.5581C12.679 22.5581 13.1163 22.1677 13.1163 21.686M11.1628 21.686H13.1163M11.1628 21.686V21.1047M13.1163 21.686V21.1047M11.4884 18.4884C7.35265 18.4884 4 21.4818 4 25.1744M11.4884 18.4884V20.2326M11.4884 18.4884C11.8626 18.4884 12.231 18.513 12.5915 18.5605L12.3058 20.286C12.0396 20.2508 11.7667 20.2326 11.4884 20.2326M4 25.1744H5.95349M5.95349 25.1744C5.95349 22.4451 8.43154 20.2326 11.4884 20.2326M24.5116 20.2326C27.5684 20.2326 30.0465 22.4451 30.0465 25.1744M24.5116 20.2326V18.4884M24.5116 20.2326C24.2333 20.2326 23.9604 20.2508 23.6942 20.286L23.4086 18.5605C23.769 18.513 24.1375 18.4884 24.5116 18.4884M30.0465 25.1744H32M32 25.1744C32 21.4818 28.6473 18.4884 24.5116 18.4884M21.907 38.2558H14.093M21.907 38.2558V40M21.907 38.2558C23.1624 38.2558 24.0058 38.254 24.6348 38.1785C25.2359 38.1063 25.4931 37.9816 25.6628 37.8301M14.093 38.2558V40M14.093 38.2558C12.8376 38.2558 11.9942 38.254 11.3652 38.1785C10.7642 38.1063 10.507 37.9816 10.3373 37.8301M14.093 40H21.907M14.093 40C12.8928 40 11.8944 40.0019 11.1049 39.9071C10.2873 39.809 9.54912 39.593 8.95595 39.0634M21.907 40C23.1072 40 24.1057 40.0019 24.8952 39.9071C25.7128 39.809 26.4509 39.593 27.044 39.0634M10.3373 37.8301L8.95595 39.0634M10.3373 37.8301C10.1676 37.6786 10.0279 37.449 9.94712 36.9123C9.86254 36.3507 9.86047 35.5977 9.86047 34.4767M8.95595 39.0634C8.36278 38.5338 8.12097 37.8748 8.01105 37.1448C7.90491 36.4399 7.90698 35.5484 7.90698 34.4767M7.90698 34.4767H9.86047M26.1395 34.4767C26.1395 35.5977 26.1375 36.3507 26.0529 36.9123C25.9721 37.449 25.8324 37.6786 25.6628 37.8301M25.6628 37.8301L27.044 39.0634M18 15C14.991 15 12.4383 16.735 11.5237 19.1432M18 15V16.7442M18 15C21.009 15 23.5617 16.735 24.4763 19.1432M11.5237 19.1432L13.3737 19.7033M11.5237 19.1432C11.2894 19.7599 11.1628 20.42 11.1628 21.1047M13.3737 19.7033C14.0277 17.9814 15.8532 16.7442 18 16.7442M13.3737 19.7033C13.2071 20.142 13.1163 20.613 13.1163 21.1047M18 16.7442C20.1468 16.7442 21.9724 17.9814 22.6264 19.7033M11.1628 21.1047H13.1163M22.6264 19.7033L24.4763 19.1432M22.6264 19.7033C22.7929 20.142 22.8837 20.613 22.8837 21.1047M24.4763 19.1432C24.7106 19.7599 24.8372 20.42 24.8372 21.1047M22.8837 21.1047H24.8372" stroke="#FF9103" stroke-width="1.5"/>
</g>
<defs>
<clipPath id="clip0_36_315">
<rect width="36" height="36" fill="white"/>
</clipPath>
</defs>
</svg>
