<?xml version="1.0" encoding="utf-8"?>
<svg viewBox="0 0 193 40" xmlns="http://www.w3.org/2000/svg">
  <defs>
    <clipPath id="clip0_36_315">
      <rect width="36" height="36" fill="white"/>
    </clipPath>
  </defs>
  <g clip-path="url(#clip0_36_315)" transform="matrix(0.7428200244903564, 0, 0, 0.7196549773216248, 92.25654602050783, -9.67453384399414)" style="">
    <path d="M8.88372 30.5046H9.86047C9.86047 30.158 9.63054 29.8442 9.27478 29.7055L8.88372 30.5046ZM27.1163 30.5046L26.7252 29.7055C26.3694 29.8442 26.1395 30.158 26.1395 30.5046H27.1163ZM22.8837 21.686C22.8837 22.1677 23.321 22.5581 23.8605 22.5581C24.3999 22.5581 24.8372 22.1677 24.8372 21.686H22.8837ZM11.1628 21.686C11.1628 22.1677 11.6001 22.5581 12.1395 22.5581C12.679 22.5581 13.1163 22.1677 13.1163 21.686H11.1628ZM11.4884 18.4884C7.35265 18.4884 4 21.4818 4 25.1744H5.95349C5.95349 22.4451 8.43154 20.2326 11.4884 20.2326V18.4884ZM24.5116 20.2326C27.5684 20.2326 30.0465 22.4451 30.0465 25.1744H32C32 21.4818 28.6473 18.4884 24.5116 18.4884V20.2326ZM21.907 38.2558H14.093V40H21.907V38.2558ZM14.093 38.2558C12.8376 38.2558 11.9942 38.254 11.3652 38.1785C10.7642 38.1063 10.507 37.9816 10.3373 37.8301L8.95595 39.0634C9.54912 39.593 10.2873 39.809 11.1049 39.9071C11.8944 40.0019 12.8928 40 14.093 40V38.2558ZM7.90698 34.4767C7.90698 35.5484 7.90491 36.4399 8.01105 37.1448C8.12098 37.8748 8.36278 38.5338 8.95595 39.0634L10.3373 37.8301C10.1676 37.6786 10.0279 37.449 9.94712 36.9123C9.86254 36.3507 9.86047 35.5977 9.86047 34.4767H7.90698ZM26.1395 34.4767C26.1395 35.5977 26.1375 36.3507 26.0529 36.9123C25.9721 37.449 25.8324 37.6786 25.6628 37.8301L27.044 39.0634C27.6372 38.5338 27.8791 37.8748 27.989 37.1448C28.0951 36.4399 28.093 35.5484 28.093 34.4767H26.1395ZM21.907 40C23.1072 40 24.1057 40.0019 24.8952 39.9071C25.7128 39.809 26.4509 39.593 27.044 39.0634L25.6628 37.8301C25.4931 37.9816 25.2359 38.1063 24.6348 38.1785C24.0058 38.254 23.1624 38.2558 21.907 38.2558V40ZM11.4884 20.2326C11.7667 20.2326 12.0396 20.2508 12.3058 20.286L12.5915 18.5605C12.231 18.513 11.8626 18.4884 11.4884 18.4884V20.2326ZM18 15C14.991 15 12.4383 16.735 11.5237 19.1432L13.3737 19.7033C14.0277 17.9814 15.8532 16.7442 18 16.7442V15ZM11.5237 19.1432C11.2894 19.7599 11.1628 20.42 11.1628 21.1047H13.1163C13.1163 20.613 13.2071 20.142 13.3737 19.7033L11.5237 19.1432ZM24.5116 18.4884C24.1375 18.4884 23.769 18.513 23.4086 18.5605L23.6942 20.286C23.9604 20.2508 24.2333 20.2326 24.5116 20.2326V18.4884ZM18 16.7442C20.1468 16.7442 21.9724 17.9814 22.6264 19.7033L24.4763 19.1432C23.5617 16.735 21.009 15 18 15V16.7442ZM22.6264 19.7033C22.7929 20.142 22.8837 20.613 22.8837 21.1047H24.8372C24.8372 20.42 24.7106 19.7599 24.4763 19.1432L22.6264 19.7033ZM9.86047 34.4767V30.5046H7.90698V34.4767H9.86047ZM9.27478 29.7055C7.31792 28.9421 5.95349 27.1995 5.95349 25.1744H4C4 27.9174 5.84995 30.2728 8.49266 31.3037L9.27478 29.7055ZM26.1395 30.5046V34.4767H28.093V30.5046H26.1395ZM30.0465 25.1744C30.0465 27.1995 28.6821 28.9421 26.7252 29.7055L27.5074 31.3037C30.15 30.2728 32 27.9174 32 25.1744H30.0465ZM22.8837 21.1047V21.686H24.8372V21.1047H22.8837ZM11.1628 21.1047V21.686H13.1163V21.1047H11.1628Z" fill="#FF9103"/>
    <path d="M 27.116 34.477 L 28.093 34.477 M 28.093 34.477 C 28.093 35.548 28.095 36.44 27.989 37.145 C 27.879 37.875 27.637 38.534 27.044 39.063 M 28.093 34.477 L 26.14 34.477 M 28.093 34.477 L 28.093 30.505 L 26.14 30.505 M 9.86 30.505 L 8.884 30.505 L 9.275 29.706 M 9.86 30.505 C 9.86 30.158 9.631 29.844 9.275 29.706 M 9.86 30.505 L 9.86 34.477 M 9.86 30.505 L 7.907 30.505 L 7.907 34.477 M 9.275 29.706 C 7.318 28.942 5.953 27.2 5.953 25.174 M 9.275 29.706 L 8.493 31.304 C 5.85 30.273 4 27.917 4 25.174 M 26.725 29.706 L 27.116 30.505 L 26.14 30.505 M 26.725 29.706 C 26.369 29.844 26.14 30.158 26.14 30.505 M 26.725 29.706 C 28.682 28.942 30.047 27.2 30.047 25.174 M 26.725 29.706 L 27.507 31.304 C 30.15 30.273 32 27.917 32 25.174 M 26.14 30.505 L 26.14 34.477 M 22.884 21.686 C 22.884 22.168 23.321 22.558 23.861 22.558 C 24.4 22.558 24.837 22.168 24.837 21.686 M 22.884 21.686 L 24.837 21.686 M 22.884 21.686 L 22.884 21.105 M 24.837 21.686 L 24.837 21.105 M 11.163 21.686 C 11.163 22.168 11.6 22.558 12.14 22.558 C 12.679 22.558 13.116 22.168 13.116 21.686 M 11.163 21.686 L 13.116 21.686 M 11.163 21.686 L 11.163 21.105 M 13.116 21.686 L 13.116 21.105 M 11.488 18.488 C 7.353 18.488 4 21.482 4 25.174 M 11.488 18.488 L 11.488 20.233 M 11.488 18.488 C 11.863 18.488 12.231 18.513 12.592 18.561 L 12.306 20.286 C 12.04 20.251 11.767 20.233 11.488 20.233 M 4 25.174 L 5.953 25.174 M 5.953 25.174 C 5.953 22.445 8.432 20.233 11.488 20.233 M 24.512 20.233 C 27.568 20.233 30.047 22.445 30.047 25.174 M 24.512 20.233 L 24.512 18.488 M 24.512 20.233 C 24.233 20.233 23.96 20.251 23.694 20.286 L 23.409 18.561 C 23.769 18.513 24.138 18.488 24.512 18.488 M 30.047 25.174 L 32 25.174 M 32 25.174 C 32 21.482 28.647 18.488 24.512 18.488 M 21.907 38.256 L 14.093 38.256 M 21.907 38.256 L 21.907 40 M 21.907 38.256 C 23.162 38.256 24.006 38.254 24.635 38.179 C 25.236 38.106 25.493 37.982 25.663 37.83 M 14.093 38.256 L 14.093 40 M 14.093 38.256 C 12.838 38.256 11.994 38.254 11.365 38.179 C 10.764 38.106 10.507 37.982 10.337 37.83 M 14.093 40 L 21.907 40 M 14.093 40 C 12.893 40 11.894 40.002 11.105 39.907 C 10.287 39.809 9.549 39.593 8.956 39.063 M 21.907 40 C 23.107 40 24.106 40.002 24.895 39.907 C 25.713 39.809 26.451 39.593 27.044 39.063 M 10.337 37.83 L 8.956 39.063 M 10.337 37.83 C 10.168 37.679 10.028 37.449 9.947 36.912 C 9.863 36.351 9.86 35.598 9.86 34.477 M 8.956 39.063 C 8.363 38.534 8.121 37.875 8.011 37.145 C 7.905 36.44 7.907 35.548 7.907 34.477 M 7.907 34.477 L 9.86 34.477 M 26.14 34.477 C 26.14 35.598 26.138 36.351 26.053 36.912 C 25.972 37.449 25.832 37.679 25.663 37.83 M 25.663 37.83 L 27.044 39.063 M 18 15 C 14.991 15 12.438 16.735 11.524 19.143 M 18 15 L 18 16.744 M 18 15 C 21.009 15 23.562 16.735 24.476 19.143 M 11.524 19.143 L 13.374 19.703 M 11.524 19.143 C 11.289 19.76 11.163 20.42 11.163 21.105 M 13.374 19.703 C 14.028 17.981 15.853 16.744 18 16.744 M 13.374 19.703 C 13.207 20.142 13.116 20.613 13.116 21.105 M 18 16.744 C 20.147 16.744 21.972 17.981 22.626 19.703 M 11.477 20.475 L 13.116 21.105 M 22.626 19.703 L 24.476 19.143 M 22.626 19.703 C 22.793 20.142 22.884 20.613 22.884 21.105 M 24.476 19.143 C 24.711 19.76 24.837 20.42 24.837 21.105 M 22.884 21.105 L 24.837 21.105" stroke="#FF9103" stroke-width="1.5" style="fill: none;"/>
  </g>
  <path d="M 36.256 18.225 C 36.143 17.257 35.68 16.507 34.863 15.976 C 34.046 15.437 33.02 15.168 31.782 15.168 C 30.895 15.168 30.129 15.304 29.483 15.577 C 28.835 15.843 28.333 16.21 27.973 16.681 C 27.621 17.145 27.445 17.673 27.445 18.265 C 27.445 18.763 27.564 19.192 27.804 19.553 C 28.051 19.915 28.371 20.217 28.765 20.463 C 29.165 20.701 29.594 20.903 30.052 21.066 C 30.509 21.223 30.948 21.352 31.37 21.455 L 33.481 21.986 C 34.17 22.149 34.877 22.371 35.602 22.65 C 36.326 22.93 36.998 23.299 37.618 23.754 C 38.236 24.211 38.735 24.777 39.116 25.451 C 39.503 26.126 39.695 26.934 39.695 27.874 C 39.695 29.059 39.379 30.112 38.746 31.033 C 38.119 31.953 37.209 32.679 36.013 33.21 C 34.824 33.742 33.387 34.007 31.698 34.007 C 30.08 34.007 28.679 33.759 27.499 33.261 C 26.316 32.764 25.392 32.059 24.724 31.145 C 24.055 30.225 23.686 29.136 23.615 27.874 L 26.886 27.874 C 26.95 28.631 27.203 29.262 27.645 29.765 C 28.095 30.263 28.669 30.634 29.366 30.88 C 30.07 31.118 30.84 31.237 31.677 31.237 C 32.598 31.237 33.417 31.098 34.134 30.818 C 34.86 30.532 35.429 30.137 35.843 29.632 C 36.259 29.122 36.467 28.525 36.467 27.843 C 36.467 27.223 36.284 26.716 35.919 26.321 C 35.559 25.925 35.071 25.598 34.451 25.339 C 33.839 25.08 33.147 24.852 32.373 24.654 L 29.82 23.979 C 28.089 23.523 26.717 22.852 25.705 21.966 C 24.698 21.08 24.195 19.908 24.195 18.449 C 24.195 17.243 24.534 16.19 25.209 15.291 C 25.884 14.391 26.798 13.692 27.952 13.195 C 29.105 12.69 30.406 12.439 31.857 12.439 C 33.319 12.439 34.609 12.687 35.728 13.185 C 36.853 13.682 37.74 14.368 38.388 15.239 C 39.035 16.106 39.371 17.1 39.4 18.225 L 36.256 18.225 Z M 46.493 24.338 L 46.493 33.659 L 43.338 33.659 L 43.338 17.959 L 46.367 17.959 L 46.367 20.514 L 46.568 20.514 C 46.941 19.683 47.524 19.015 48.319 18.51 C 49.121 18.007 50.129 17.753 51.347 17.753 C 52.452 17.753 53.419 17.98 54.249 18.429 C 55.078 18.871 55.722 19.533 56.18 20.411 C 56.636 21.291 56.865 22.378 56.865 23.674 L 56.865 33.659 L 53.711 33.659 L 53.711 24.041 C 53.711 22.904 53.405 22.014 52.792 21.373 C 52.18 20.726 51.34 20.402 50.27 20.402 C 49.54 20.402 48.888 20.555 48.319 20.862 C 47.755 21.168 47.31 21.618 46.978 22.211 C 46.656 22.798 46.493 23.506 46.493 24.338 Z M 65.814 34.007 C 64.786 34.007 63.857 33.824 63.028 33.455 C 62.197 33.081 61.54 32.539 61.054 31.83 C 60.576 31.122 60.337 30.253 60.337 29.224 C 60.337 28.338 60.512 27.608 60.865 27.036 C 61.217 26.463 61.691 26.011 62.289 25.677 C 62.886 25.342 63.555 25.09 64.293 24.92 C 65.033 24.749 65.785 24.621 66.552 24.532 C 67.523 24.423 68.31 24.334 68.915 24.265 C 69.52 24.191 69.959 24.072 70.233 23.908 C 70.508 23.745 70.645 23.479 70.645 23.11 L 70.645 23.039 C 70.645 22.146 70.385 21.455 69.865 20.963 C 69.352 20.473 68.585 20.228 67.565 20.228 C 66.503 20.228 65.665 20.456 65.053 20.913 C 64.448 21.363 64.029 21.863 63.798 22.415 L 60.833 21.761 C 61.184 20.807 61.698 20.037 62.373 19.451 C 63.056 18.858 63.839 18.429 64.726 18.163 C 65.613 17.891 66.544 17.753 67.523 17.753 C 68.169 17.753 68.856 17.829 69.579 17.98 C 70.312 18.122 70.993 18.388 71.627 18.777 C 72.266 19.165 72.791 19.72 73.199 20.443 C 73.607 21.158 73.811 22.089 73.811 23.234 L 73.811 33.659 L 70.729 33.659 L 70.729 31.513 L 70.604 31.513 C 70.399 31.909 70.093 32.297 69.685 32.679 C 69.277 33.06 68.754 33.377 68.113 33.63 C 67.473 33.881 66.706 34.007 65.814 34.007 Z M 66.498 31.554 C 67.371 31.554 68.117 31.387 68.735 31.053 C 69.362 30.72 69.836 30.283 70.16 29.744 C 70.491 29.2 70.657 28.617 70.657 27.997 L 70.657 25.973 C 70.543 26.082 70.326 26.184 70.002 26.28 C 69.685 26.368 69.323 26.447 68.915 26.515 C 68.507 26.576 68.11 26.634 67.724 26.689 C 67.336 26.736 67.011 26.777 66.753 26.811 C 66.14 26.887 65.581 27.012 65.074 27.189 C 64.575 27.366 64.174 27.622 63.871 27.956 C 63.575 28.283 63.429 28.72 63.429 29.265 C 63.429 30.021 63.717 30.593 64.293 30.982 C 64.87 31.363 65.605 31.554 66.498 31.554 Z M 78.013 39.548 L 78.013 17.959 L 81.093 17.959 L 81.093 20.503 L 81.358 20.503 C 81.541 20.177 81.805 19.798 82.149 19.369 C 82.494 18.94 82.972 18.565 83.584 18.245 C 84.197 17.917 85.005 17.753 86.012 17.753 C 87.319 17.753 88.487 18.074 89.513 18.715 C 90.54 19.356 91.347 20.279 91.931 21.485 C 92.521 22.692 92.816 24.143 92.816 25.84 C 92.816 27.537 92.525 28.992 91.941 30.204 C 91.358 31.411 90.555 32.341 89.536 32.995 C 88.516 33.644 87.351 33.967 86.042 33.967 C 85.058 33.967 84.252 33.807 83.627 33.487 C 83.007 33.166 82.522 32.791 82.17 32.361 C 81.819 31.933 81.548 31.552 81.358 31.217 L 81.168 31.217 L 81.168 39.548 L 78.013 39.548 Z M 81.104 25.809 C 81.104 26.913 81.27 27.881 81.6 28.713 C 81.931 29.544 82.409 30.195 83.035 30.665 C 83.661 31.128 84.428 31.36 85.336 31.36 C 86.278 31.36 87.066 31.118 87.699 30.634 C 88.333 30.144 88.811 29.479 89.134 28.641 C 89.465 27.802 89.631 26.859 89.631 25.809 C 89.631 24.774 89.468 23.843 89.146 23.019 C 88.828 22.194 88.349 21.543 87.711 21.066 C 87.076 20.589 86.286 20.351 85.336 20.351 C 84.421 20.351 83.648 20.579 83.014 21.036 C 82.389 21.491 81.914 22.129 81.589 22.948 C 81.266 23.765 81.104 24.719 81.104 25.809 Z" fill="#191919" style=""/>
  <path d="M 115.797 20.576 L 109.847 20.576 C 109.804 20.099 109.692 19.665 109.509 19.278 C 109.333 18.889 109.087 18.555 108.77 18.276 C 108.461 17.989 108.084 17.771 107.642 17.621 C 107.199 17.464 106.696 17.386 106.133 17.386 C 105.147 17.386 104.314 17.618 103.633 18.081 C 102.957 18.544 102.443 19.21 102.091 20.075 C 101.747 20.94 101.575 21.98 101.575 23.193 C 101.575 24.474 101.751 25.547 102.101 26.412 C 102.461 27.271 102.978 27.918 103.653 28.354 C 104.329 28.784 105.141 28.999 106.09 28.999 C 106.632 28.999 107.118 28.934 107.547 28.805 C 107.976 28.669 108.349 28.474 108.665 28.222 C 108.981 27.97 109.238 27.667 109.435 27.312 C 109.64 26.952 109.776 26.545 109.847 26.096 L 115.797 26.136 C 115.727 27.023 115.47 27.926 115.028 28.846 C 114.584 29.758 113.954 30.603 113.139 31.381 C 112.331 32.151 111.327 32.771 110.132 33.241 C 108.936 33.711 107.547 33.946 105.964 33.946 C 103.98 33.946 102.201 33.534 100.624 32.709 C 99.057 31.885 97.815 30.672 96.901 29.071 C 95.992 27.469 95.539 25.51 95.539 23.193 C 95.539 20.862 96.003 18.899 96.931 17.304 C 97.86 15.703 99.113 14.493 100.689 13.676 C 102.264 12.851 104.022 12.439 105.964 12.439 C 107.329 12.439 108.585 12.619 109.731 12.981 C 110.878 13.342 111.883 13.869 112.748 14.565 C 113.614 15.253 114.311 16.101 114.838 17.11 C 115.365 18.119 115.686 19.274 115.797 20.576 Z M 124.368 24.828 L 124.368 33.659 L 118.544 33.659 L 118.544 12.725 L 124.157 12.725 L 124.157 20.943 L 124.326 20.943 C 124.692 19.942 125.301 19.161 126.152 18.602 C 127.003 18.036 128.025 17.753 129.222 17.753 C 130.368 17.753 131.365 18.007 132.207 18.51 C 133.058 19.015 133.717 19.71 134.181 20.596 C 134.652 21.482 134.884 22.497 134.877 23.642 L 134.877 33.659 L 129.053 33.659 L 129.053 24.828 C 129.06 24.051 128.86 23.441 128.451 22.998 C 128.051 22.556 127.478 22.334 126.732 22.334 C 126.26 22.334 125.846 22.436 125.487 22.641 C 125.134 22.839 124.86 23.124 124.663 23.499 C 124.474 23.866 124.375 24.31 124.368 24.828 Z M 145.518 33.946 C 143.789 33.946 142.296 33.626 141.044 32.986 C 139.799 32.337 138.84 31.411 138.165 30.204 C 137.496 28.992 137.161 27.54 137.161 25.85 C 137.161 24.228 137.5 22.811 138.175 21.597 C 138.85 20.384 139.803 19.441 141.034 18.765 C 142.265 18.092 143.718 17.753 145.392 17.753 C 146.616 17.753 147.723 17.938 148.716 18.306 C 149.708 18.674 150.555 19.21 151.258 19.911 C 151.962 20.606 152.503 21.451 152.883 22.446 C 153.263 23.441 153.453 24.562 153.453 25.809 L 153.453 27.118 L 138.976 27.118 L 138.976 24.01 L 148.093 24.01 C 148.086 23.56 147.967 23.165 147.734 22.825 C 147.509 22.477 147.204 22.208 146.817 22.016 C 146.437 21.819 146.004 21.721 145.518 21.721 C 145.047 21.721 144.615 21.819 144.221 22.016 C 143.827 22.208 143.51 22.473 143.271 22.813 C 143.039 23.155 142.916 23.554 142.902 24.01 L 142.902 27.363 C 142.902 27.867 143.011 28.318 143.229 28.713 C 143.446 29.108 143.761 29.419 144.168 29.643 C 144.576 29.868 145.068 29.98 145.646 29.98 C 146.046 29.98 146.411 29.926 146.743 29.817 C 147.08 29.708 147.368 29.551 147.608 29.346 C 147.846 29.136 148.022 28.882 148.135 28.59 L 153.453 28.59 C 153.27 29.681 152.837 30.628 152.156 31.432 C 151.472 32.229 150.569 32.85 149.444 33.292 C 148.325 33.729 147.017 33.946 145.518 33.946 Z M 165.538 17.959 L 165.538 22.048 L 154.69 22.048 L 154.69 17.959 L 165.538 17.959 Z M 156.759 33.659 L 156.759 17.508 C 156.759 16.214 156.996 15.141 157.475 14.289 C 157.953 13.436 158.63 12.8 159.502 12.377 C 160.375 11.954 161.402 11.743 162.582 11.743 C 163.322 11.743 164.039 11.798 164.735 11.907 C 165.439 12.016 165.959 12.111 166.297 12.193 L 165.452 16.242 C 165.242 16.18 164.996 16.132 164.714 16.098 C 164.432 16.057 164.187 16.036 163.976 16.036 C 163.427 16.036 163.058 16.15 162.867 16.375 C 162.678 16.599 162.582 16.895 162.582 17.263 L 162.582 33.659 L 156.759 33.659 Z" fill="#FF9103" style=""/>
</svg>