<svg width="193" height="40" viewBox="0 0 193 40" fill="none" xmlns="http://www.w3.org/2000/svg">
<path d="M17.0625 9.55114C16.911 8.20644 16.286 7.16477 15.1875 6.42614C14.089 5.67803 12.7064 5.30398 11.0398 5.30398C9.84659 5.30398 8.81439 5.49337 7.94318 5.87216C7.07197 6.24148 6.39489 6.75284 5.91193 7.40625C5.43845 8.05019 5.2017 8.78409 5.2017 9.60795C5.2017 10.2992 5.36269 10.8958 5.68466 11.3977C6.0161 11.8996 6.44697 12.321 6.97727 12.6619C7.51705 12.9934 8.0947 13.2727 8.71023 13.5C9.32576 13.7178 9.91761 13.8977 10.4858 14.0398L13.3267 14.7784C14.2547 15.0057 15.2064 15.3134 16.1818 15.7017C17.1572 16.09 18.0616 16.6013 18.8949 17.2358C19.7282 17.8703 20.4006 18.6562 20.9119 19.5938C21.4328 20.5312 21.6932 21.6534 21.6932 22.9602C21.6932 24.608 21.267 26.071 20.4148 27.3494C19.572 28.6278 18.3456 29.6364 16.7358 30.375C15.1354 31.1136 13.1989 31.483 10.9261 31.483C8.74811 31.483 6.86364 31.1373 5.27273 30.446C3.68182 29.7547 2.43655 28.7746 1.53693 27.5057C0.637311 26.2273 0.140152 24.7121 0.0454547 22.9602H4.44886C4.53409 24.0114 4.875 24.8873 5.47159 25.5881C6.07765 26.2794 6.84943 26.7955 7.78693 27.1364C8.7339 27.4678 9.77083 27.6335 10.8977 27.6335C12.1383 27.6335 13.2415 27.4394 14.2074 27.0511C15.1828 26.6534 15.9498 26.1042 16.5085 25.4034C17.0672 24.6932 17.3466 23.8646 17.3466 22.9176C17.3466 22.0559 17.1004 21.3504 16.608 20.8011C16.125 20.2519 15.4669 19.7973 14.6335 19.4375C13.8097 19.0777 12.8769 18.7604 11.8352 18.4858L8.39773 17.5483C6.06818 16.9138 4.22159 15.9811 2.85795 14.75C1.50379 13.5189 0.826705 11.8902 0.826705 9.86364C0.826705 8.1875 1.28125 6.72443 2.19034 5.47443C3.09943 4.22443 4.33049 3.25379 5.88352 2.5625C7.43655 1.86174 9.18845 1.51136 11.1392 1.51136C13.1089 1.51136 14.8466 1.85701 16.3523 2.5483C17.8674 3.23958 19.0606 4.19129 19.9318 5.40341C20.803 6.60606 21.2576 7.98864 21.2955 9.55114H17.0625ZM30.8445 18.0455V31H26.5973V9.18182H30.674V12.733H30.9439C31.4458 11.5777 32.2318 10.6496 33.3018 9.94886C34.3814 9.24811 35.7403 8.89773 37.3786 8.89773C38.8653 8.89773 40.1674 9.21023 41.2848 9.83523C42.4022 10.4508 43.2687 11.3693 43.8842 12.5909C44.4998 13.8125 44.8075 15.3229 44.8075 17.1222V31H40.5604V17.6335C40.5604 16.0521 40.1484 14.8163 39.3246 13.9261C38.5007 13.0265 37.3691 12.5767 35.9297 12.5767C34.9448 12.5767 34.0689 12.7898 33.3018 13.2159C32.5443 13.642 31.9429 14.267 31.4979 15.0909C31.0623 15.9053 30.8445 16.8902 30.8445 18.0455ZM56.853 31.483C55.4704 31.483 54.2204 31.2273 53.103 30.7159C51.9856 30.1951 51.1001 29.4422 50.4467 28.4574C49.8028 27.4725 49.4808 26.2652 49.4808 24.8352C49.4808 23.6042 49.7176 22.5909 50.1911 21.7955C50.6645 21 51.3037 20.3703 52.1087 19.9062C52.9136 19.4422 53.8132 19.0919 54.8075 18.8551C55.8018 18.6184 56.8151 18.4384 57.8473 18.3153C59.1541 18.1638 60.2147 18.0407 61.0291 17.946C61.8435 17.8419 62.4354 17.6761 62.8047 17.4489C63.174 17.2216 63.3587 16.8523 63.3587 16.3409V16.2415C63.3587 15.0009 63.0083 14.0398 62.3075 13.358C61.6162 12.6761 60.584 12.3352 59.2109 12.3352C57.781 12.3352 56.6541 12.6525 55.8303 13.2869C55.0159 13.9119 54.4524 14.608 54.1399 15.375L50.1484 14.4659C50.6219 13.1402 51.3132 12.0701 52.2223 11.2557C53.1409 10.4318 54.1967 9.83523 55.3899 9.46591C56.5831 9.08712 57.8378 8.89773 59.1541 8.89773C60.0253 8.89773 60.9486 9.00189 61.924 9.21023C62.9089 9.40909 63.8274 9.77841 64.6797 10.3182C65.5414 10.858 66.2469 11.6297 66.7962 12.6335C67.3454 13.6278 67.62 14.9205 67.62 16.5114V31H63.4723V28.017H63.3018C63.0272 28.5663 62.6153 29.1061 62.0661 29.6364C61.5168 30.1667 60.8113 30.607 59.9496 30.9574C59.0878 31.3078 58.0556 31.483 56.853 31.483ZM57.7763 28.0739C58.9505 28.0739 59.9543 27.8419 60.7876 27.3778C61.6304 26.9138 62.2697 26.3078 62.7053 25.5597C63.1503 24.8021 63.3729 23.9924 63.3729 23.1307V20.3182C63.2214 20.4697 62.9278 20.6117 62.4922 20.7443C62.0661 20.8674 61.5784 20.9763 61.0291 21.071C60.4799 21.1562 59.9448 21.2367 59.424 21.3125C58.9032 21.3788 58.4676 21.4356 58.1172 21.483C57.2933 21.5871 56.5405 21.7623 55.8587 22.0085C55.1863 22.2547 54.6465 22.6098 54.2393 23.0739C53.8416 23.5284 53.6428 24.1345 53.6428 24.892C53.6428 25.9432 54.031 26.7386 54.8075 27.2784C55.584 27.8087 56.5736 28.0739 57.7763 28.0739ZM73.277 39.1818V9.18182H77.4247V12.7188H77.7798C78.026 12.2642 78.3812 11.7386 78.8452 11.142C79.3092 10.5455 79.9531 10.0246 80.777 9.57955C81.6009 9.125 82.6899 8.89773 84.044 8.89773C85.8054 8.89773 87.3774 9.3428 88.7599 10.233C90.1425 11.1231 91.2268 12.4062 92.0128 14.0824C92.8082 15.7585 93.206 17.7756 93.206 20.1335C93.206 22.4915 92.813 24.5133 92.027 26.1989C91.241 27.875 90.1615 29.1676 88.7884 30.0767C87.4152 30.9763 85.848 31.4261 84.0866 31.4261C82.7609 31.4261 81.6766 31.2036 80.8338 30.7585C80.0005 30.3134 79.3471 29.7926 78.8736 29.196C78.4001 28.5994 78.0355 28.0691 77.7798 27.6051H77.5241V39.1818H73.277ZM77.4389 20.0909C77.4389 21.625 77.6615 22.9697 78.1065 24.125C78.5516 25.2803 79.1955 26.1847 80.0384 26.8381C80.8812 27.482 81.9134 27.804 83.1349 27.804C84.4039 27.804 85.4645 27.4678 86.3168 26.7955C87.169 26.1136 87.813 25.1903 88.2486 24.0256C88.6937 22.8608 88.9162 21.5492 88.9162 20.0909C88.9162 18.6515 88.6984 17.3589 88.2628 16.2131C87.8366 15.0672 87.1927 14.1629 86.331 13.5C85.4787 12.8371 84.4134 12.5057 83.1349 12.5057C81.9039 12.5057 80.8622 12.8229 80.0099 13.4574C79.1671 14.0919 78.5279 14.9773 78.0923 16.1136C77.6567 17.25 77.4389 18.5758 77.4389 20.0909Z" fill="#191919"/>
<path d="M124.143 12.8182H116.132C116.075 12.1553 115.924 11.554 115.678 11.0142C115.441 10.4744 115.109 10.0104 114.683 9.62216C114.267 9.22443 113.76 8.9214 113.163 8.71307C112.567 8.49526 111.89 8.38636 111.132 8.38636C109.806 8.38636 108.684 8.70833 107.766 9.35227C106.857 9.99621 106.165 10.9195 105.692 12.1222C105.228 13.3248 104.996 14.7689 104.996 16.4545C104.996 18.2348 105.232 19.7263 105.706 20.929C106.189 22.1222 106.885 23.0218 107.794 23.6278C108.703 24.2244 109.797 24.5227 111.075 24.5227C111.804 24.5227 112.458 24.4328 113.036 24.2528C113.613 24.0634 114.115 23.7936 114.541 23.4432C114.967 23.0928 115.313 22.6714 115.578 22.179C115.853 21.6771 116.037 21.1136 116.132 20.4886L124.143 20.5455C124.049 21.7765 123.703 23.0312 123.107 24.3097C122.51 25.5786 121.662 26.7528 120.564 27.8324C119.475 28.9025 118.125 29.7642 116.516 30.4176C114.906 31.071 113.036 31.3977 110.905 31.3977C108.234 31.3977 105.839 30.8248 103.717 29.679C101.606 28.5331 99.9342 26.8475 98.7031 24.6222C97.4815 22.3968 96.8707 19.6742 96.8707 16.4545C96.8707 13.2159 97.4957 10.4886 98.7457 8.27273C99.9957 6.04735 101.681 4.36648 103.803 3.23011C105.924 2.08428 108.291 1.51136 110.905 1.51136C112.742 1.51136 114.432 1.76231 115.976 2.2642C117.519 2.7661 118.874 3.5 120.038 4.46591C121.203 5.42235 122.141 6.60133 122.851 8.00284C123.561 9.40436 123.992 11.0095 124.143 12.8182ZM135.681 18.7273V31H127.84V1.90909H135.397V13.3295H135.624C136.117 11.9375 136.936 10.8532 138.082 10.0767C139.228 9.29072 140.605 8.89773 142.215 8.89773C143.759 8.89773 145.099 9.24811 146.235 9.94886C147.381 10.6496 148.266 11.6155 148.891 12.8466C149.526 14.0777 149.838 15.4886 149.829 17.0795V31H141.988V18.7273C141.997 17.6477 141.728 16.8002 141.178 16.1847C140.638 15.5691 139.867 15.2614 138.863 15.2614C138.228 15.2614 137.67 15.4034 137.187 15.6875C136.713 15.9621 136.344 16.3598 136.079 16.8807C135.823 17.392 135.691 18.0076 135.681 18.7273ZM164.154 31.3977C161.825 31.3977 159.817 30.9527 158.131 30.0625C156.455 29.1629 155.163 27.875 154.254 26.1989C153.354 24.5133 152.904 22.4962 152.904 20.1477C152.904 17.8939 153.359 15.9242 154.268 14.2386C155.177 12.553 156.46 11.2415 158.117 10.304C159.774 9.36648 161.73 8.89773 163.984 8.89773C165.631 8.89773 167.123 9.15341 168.458 9.66477C169.793 10.1761 170.934 10.9195 171.881 11.8949C172.828 12.8608 173.558 14.035 174.069 15.4176C174.58 16.8002 174.836 18.358 174.836 20.0909V21.9091H155.347V17.5909H167.62C167.611 16.9659 167.45 16.4167 167.137 15.9432C166.834 15.4602 166.422 15.0862 165.901 14.821C165.39 14.5464 164.808 14.4091 164.154 14.4091C163.52 14.4091 162.937 14.5464 162.407 14.821C161.877 15.0862 161.451 15.4555 161.129 15.929C160.816 16.4025 160.65 16.9564 160.631 17.5909V22.25C160.631 22.9508 160.778 23.5758 161.072 24.125C161.365 24.6742 161.787 25.1051 162.336 25.4176C162.885 25.7301 163.548 25.8864 164.325 25.8864C164.864 25.8864 165.357 25.8106 165.802 25.6591C166.256 25.5076 166.645 25.2898 166.967 25.0057C167.289 24.7121 167.525 24.3617 167.677 23.9545H174.836C174.59 25.4697 174.007 26.786 173.089 27.9034C172.17 29.0114 170.953 29.8731 169.438 30.4886C167.933 31.0947 166.171 31.3977 164.154 31.3977ZM191.104 9.18182V14.8636H176.501V9.18182H191.104ZM179.286 31V8.55682C179.286 6.75758 179.607 5.2661 180.251 4.08239C180.895 2.89867 181.804 2.01326 182.979 1.42614C184.153 0.839013 185.536 0.545453 187.126 0.545453C188.121 0.545453 189.087 0.621211 190.024 0.772727C190.971 0.924242 191.672 1.05682 192.126 1.17045L190.99 6.79545C190.706 6.71023 190.375 6.64394 189.996 6.59659C189.617 6.53977 189.286 6.51136 189.001 6.51136C188.263 6.51136 187.766 6.66761 187.51 6.98011C187.254 7.29261 187.126 7.70454 187.126 8.21591V31H179.286Z" fill="#FF9103"/>
</svg>
