<?xml version="1.0" standalone="no"?>
<!DOCTYPE svg PUBLIC "-//W3C//DTD SVG 20010904//EN"
 "http://www.w3.org/TR/2001/REC-SVG-20010904/DTD/svg10.dtd">
<svg version="1.0" xmlns="http://www.w3.org/2000/svg"
 width="1200.000000pt" height="1200.000000pt" viewBox="0 0 1200.000000 1200.000000"
 preserveAspectRatio="xMidYMid meet">
<metadata>
Created by potrace 1.14, written by Peter Selinger 2001-2017
</metadata>
<g transform="translate(0.000000,1200.000000) scale(0.100000,-0.100000)"
fill="#000000" stroke="none">
<path d="M6085 11778 c-33 -4 -75 -8 -92 -9 -18 -2 -33 -6 -33 -9 0 -3 -10 -5
-22 -6 -59 -1 -269 -56 -380 -98 -38 -14 -68 -22 -68 -18 0 4 -4 2 -8 -3 -4
-6 -34 -21 -67 -34 -81 -32 -305 -148 -331 -172 -11 -10 -24 -19 -28 -19 -4 0
-12 -5 -19 -10 -44 -37 -61 -50 -66 -50 -3 0 -17 -10 -31 -22 -48 -44 -177
-125 -318 -200 -85 -45 -267 -125 -267 -117 0 1 -18 -6 -40 -16 -22 -9 -49
-19 -60 -21 -44 -11 -50 -13 -50 -14 0 -1 -7 -3 -15 -5 -8 -2 -28 -6 -45 -10
-42 -9 -248 -24 -257 -18 -5 2 -8 0 -8 -6 0 -6 -6 -8 -13 -5 -17 6 -171 -30
-230 -54 -16 -7 -31 -12 -33 -12 -11 0 -159 -75 -162 -82 -2 -4 -10 -8 -18 -8
-8 0 -14 -4 -14 -10 0 -5 -5 -10 -10 -10 -10 0 -60 -32 -86 -55 -6 -5 -25 -21
-43 -34 -47 -36 -161 -149 -206 -206 -22 -28 -43 -52 -46 -55 -9 -7 -109 -156
-138 -205 -61 -102 -137 -273 -181 -405 -41 -124 -58 -191 -85 -329 -6 -31
-16 -105 -21 -161 -7 -70 -7 -320 0 -370 10 -70 42 -242 46 -247 2 -2 3 -6 4
-10 2 -12 27 -95 36 -118 12 -33 113 -240 119 -245 3 -3 24 -32 46 -65 22 -33
98 -118 169 -190 71 -71 149 -155 175 -185 25 -30 51 -61 58 -68 18 -19 116
-172 133 -207 8 -16 21 -38 30 -49 8 -10 14 -20 12 -22 -1 -2 4 -20 13 -40 25
-60 54 -165 67 -246 17 -99 14 -304 -6 -398 -22 -103 -26 -118 -30 -137 -11
-46 -71 -223 -91 -270 -13 -28 -21 -54 -17 -57 3 -3 0 -6 -6 -6 -7 0 -12 -7
-12 -15 0 -8 -43 -102 -95 -209 -52 -107 -95 -201 -95 -210 0 -8 -3 -16 -8
-18 -5 -2 -42 -103 -57 -158 -1 -3 -5 -12 -8 -20 -4 -8 -20 -69 -36 -135 -29
-114 -34 -139 -46 -202 -3 -16 -8 -39 -11 -53 -4 -14 -8 -35 -9 -47 -2 -13 -7
-42 -11 -65 -4 -24 -8 -54 -9 -68 -1 -14 -4 -38 -8 -55 -3 -16 -9 -59 -13 -95
-3 -36 -8 -78 -10 -95 -5 -31 -7 -58 -20 -275 -9 -159 -9 -591 0 -735 5 -60 9
-130 11 -155 6 -91 16 -195 20 -210 2 -8 7 -44 10 -80 4 -36 9 -74 11 -85 2
-11 6 -38 9 -60 3 -22 12 -78 21 -125 9 -47 18 -92 19 -100 1 -8 4 -24 8 -35
3 -11 9 -33 12 -50 6 -39 11 -57 31 -130 9 -33 17 -67 19 -75 2 -8 11 -35 20
-60 9 -25 18 -52 20 -60 6 -30 74 -197 106 -260 29 -58 162 -267 178 -280 4
-3 22 -25 41 -50 102 -132 369 -397 473 -469 29 -20 44 -32 68 -53 10 -10 23
-18 29 -18 5 0 10 -4 10 -10 0 -5 4 -10 10 -10 5 0 37 -20 72 -44 87 -61 216
-136 345 -200 100 -51 201 -98 213 -100 3 -1 34 -13 70 -27 121 -50 185 -73
205 -76 17 -3 51 -14 125 -41 8 -3 20 -6 25 -7 6 -2 56 -15 111 -29 56 -15
110 -28 120 -30 11 -3 64 -13 119 -24 55 -12 118 -24 140 -27 22 -4 54 -9 70
-11 17 -3 44 -7 60 -8 17 -2 57 -7 90 -11 166 -20 307 -27 510 -28 188 0 369
8 385 18 5 3 11 1 15 -5 4 -6 11 -8 16 -4 12 7 42 12 109 18 30 3 73 8 95 12
22 3 56 8 75 9 19 2 35 4 35 5 0 2 20 6 85 16 25 4 52 9 60 11 8 2 24 5 35 7
11 1 34 6 50 9 17 4 41 10 55 13 14 3 36 8 50 11 14 3 31 6 38 6 6 0 12 3 12
7 0 4 6 7 13 7 6 0 32 6 57 12 25 6 54 14 65 16 12 3 48 14 80 26 33 11 67 22
75 24 8 1 42 13 75 25 33 12 65 23 70 24 15 4 45 17 103 42 29 13 55 24 58 24
4 0 41 17 83 37 42 20 78 37 81 38 31 7 330 180 341 197 3 5 13 10 22 12 9 1
25 10 34 19 10 10 56 45 103 80 162 118 323 277 475 468 25 32 102 154 103
163 0 5 5 12 10 15 12 7 103 187 132 261 38 95 80 235 94 310 2 14 7 36 10 50
16 71 29 210 30 315 1 98 -24 155 -87 201 -65 48 -190 88 -317 101 -120 13
-424 7 -530 -11 -14 -3 -43 -7 -65 -10 -22 -3 -52 -8 -67 -11 -16 -3 -40 -7
-55 -10 -29 -5 -98 -19 -143 -29 -84 -18 -303 -84 -355 -106 -11 -4 -38 -15
-61 -23 -78 -29 -224 -100 -224 -109 0 -5 -4 -7 -9 -4 -5 3 -14 -1 -21 -9 -7
-8 -18 -15 -24 -15 -7 0 -21 -7 -31 -15 -152 -116 -190 -151 -242 -229 -105
-156 -303 -364 -379 -398 -13 -6 -24 -14 -24 -18 0 -4 -45 -30 -100 -59 -55
-29 -100 -50 -100 -46 0 3 -10 -1 -22 -9 -13 -8 -63 -24 -113 -37 -72 -18
-116 -22 -225 -22 -158 1 -155 1 -245 20 -146 32 -294 98 -438 195 -118 80
-249 200 -339 310 -148 181 -281 425 -362 663 -15 44 -29 87 -31 95 -3 8 -9
33 -15 55 -6 22 -13 49 -16 60 -3 11 -7 29 -9 40 -2 11 -7 34 -10 50 -4 17 -8
39 -10 50 -1 11 -5 36 -9 55 -20 101 -30 246 -30 430 -1 213 8 314 40 490 23
130 78 319 121 420 29 67 93 205 103 220 5 8 21 35 35 60 117 209 317 428 504
552 31 21 61 41 66 46 28 23 240 117 288 128 4 1 8 2 10 4 1 1 9 3 17 5 8 2
35 8 60 13 113 27 268 33 380 17 30 -4 61 -8 68 -8 6 0 12 -4 12 -9 0 -5 4 -7
9 -4 13 8 150 -38 229 -77 132 -66 207 -121 328 -242 86 -85 214 -244 214
-265 0 -6 5 -10 10 -10 6 0 10 -5 10 -11 0 -16 120 -166 175 -219 25 -25 54
-52 63 -61 36 -35 148 -100 222 -128 78 -30 220 -64 315 -76 213 -25 818 -26
955 -1 14 2 43 7 65 10 171 24 291 77 342 154 38 55 50 106 46 184 -3 55 -38
184 -70 258 -47 108 -182 371 -220 430 -53 80 -209 421 -217 474 -1 6 -4 16
-7 21 -3 6 -11 33 -18 60 -7 28 -16 66 -22 85 -24 93 -42 246 -42 360 0 114
14 214 47 351 27 107 127 309 205 413 33 44 97 120 143 169 46 50 93 104 105
121 12 17 26 36 32 42 19 23 91 156 91 169 0 8 4 17 10 20 19 12 91 264 106
370 10 74 13 390 4 460 -22 165 -24 178 -84 410 -2 6 -6 19 -10 30 -4 11 -19
52 -33 90 -76 211 -217 463 -337 604 -66 77 -211 216 -278 264 -123 91 -289
168 -413 193 -50 10 -54 11 -57 13 -2 1 -41 4 -88 7 -95 5 -128 9 -150 16 -8
3 -46 15 -85 28 -60 19 -310 135 -325 150 -3 3 -15 11 -27 18 -49 27 -67 37
-77 45 -6 4 -40 27 -76 50 -36 22 -67 44 -70 47 -3 3 -21 17 -40 30 -19 13
-37 27 -40 30 -3 3 -34 26 -70 51 -36 24 -67 46 -70 49 -19 19 -328 173 -370
184 -14 4 -36 12 -50 18 -14 6 -34 14 -45 19 -22 9 -216 65 -255 73 -218 47
-383 61 -525 44z m250 -822 c22 -2 41 -5 43 -7 3 -2 12 -4 66 -13 27 -4 56
-11 65 -16 9 -4 43 -18 76 -30 70 -27 172 -81 205 -110 13 -11 26 -20 29 -20
13 0 119 -105 160 -158 22 -30 48 -70 58 -90 9 -20 20 -39 23 -42 11 -9 69
-163 89 -237 11 -40 23 -115 26 -165 10 -143 12 -158 35 -219 28 -74 74 -127
141 -164 47 -26 66 -30 140 -32 158 -4 307 64 464 212 68 63 161 136 178 139
7 1 19 6 27 11 8 5 44 9 80 9 82 0 160 -34 275 -121 92 -70 225 -207 225 -232
0 -5 6 -16 14 -23 7 -8 24 -34 36 -58 86 -168 107 -371 58 -545 -6 -22 -12
-45 -14 -51 -7 -37 -104 -228 -136 -269 -82 -106 -120 -149 -223 -250 -146
-145 -205 -213 -279 -325 -31 -47 -61 -90 -66 -97 -6 -7 -10 -19 -10 -28 0 -8
-5 -15 -12 -15 -6 0 -8 -3 -5 -7 4 -3 1 -13 -6 -22 -28 -33 -54 -122 -61 -203
-13 -149 -76 -217 -208 -220 -55 -1 -196 27 -212 43 -6 5 -19 9 -30 9 -12 0
-40 7 -63 15 -22 8 -54 17 -70 20 -15 3 -32 7 -38 9 -5 2 -23 6 -40 10 -16 4
-37 10 -45 13 -18 7 -5 4 -165 42 -71 17 -146 36 -165 41 -19 6 -46 12 -60 14
-14 3 -25 5 -25 6 0 1 -9 3 -20 4 -43 6 -101 17 -115 21 -16 5 -41 9 -125 20
-27 3 -61 8 -75 11 -61 12 -273 26 -400 27 -99 0 -281 -10 -325 -19 -11 -2
-40 -7 -65 -10 -25 -3 -56 -8 -70 -10 -14 -3 -35 -7 -47 -9 -12 -2 -34 -6 -50
-9 -15 -4 -37 -8 -48 -10 -85 -18 -206 -48 -325 -82 -27 -7 -215 -54 -235 -58
-86 -19 -138 -28 -185 -34 -85 -10 -241 -7 -285 6 -52 15 -109 69 -125 118
-12 36 -83 150 -126 201 -11 12 -32 39 -49 60 -69 87 -240 261 -367 375 -121
109 -242 231 -291 293 -26 33 -52 66 -58 73 -21 25 -107 177 -114 202 -4 14
-11 30 -16 35 -18 23 -51 175 -55 251 -6 133 20 246 84 364 77 141 238 300
386 379 147 78 262 58 399 -71 134 -126 189 -168 271 -208 27 -13 72 -29 100
-35 64 -15 174 -10 192 8 4 4 16 7 26 7 10 0 18 3 18 8 0 4 12 13 28 20 38 17
110 86 164 158 42 55 178 316 178 341 0 44 118 282 174 351 81 99 260 252 295
252 6 0 11 4 11 8 0 8 34 28 53 30 4 1 21 8 37 17 46 24 165 65 188 65 12 0
24 5 27 10 4 6 9 8 13 6 4 -2 36 1 71 7 64 12 196 13 276 3z"/>
</g>
</svg>
