<svg width="40" height="40" viewBox="0 0 40 40" fill="none" xmlns="http://www.w3.org/2000/svg">
<path d="M9.9999 13.3334C9.9999 11.4748 9.9999 10.5454 10.1536 9.77265C10.7849 6.59913 13.2657 4.11835 16.4392 3.48709C17.212 3.33337 18.1413 3.33337 19.9999 3.33337C21.8585 3.33337 22.7878 3.33337 23.5606 3.48709C26.7341 4.11835 29.2149 6.59913 29.8462 9.77265C29.9999 10.5454 29.9999 11.4748 29.9999 13.3334V16.385C29.9999 17.7739 29.9999 18.4683 30.1161 19.1425C30.2063 19.6664 30.3486 20.1799 30.5407 20.6756C30.788 21.3135 31.1453 21.909 31.8598 23.0999L33.1825 25.3044C33.9883 26.6473 34.3911 27.3188 34.1039 27.8261C33.8167 28.3334 33.0336 28.3334 31.4675 28.3334H8.53234C6.96625 28.3334 6.1832 28.3334 5.89597 27.8261C5.60874 27.3188 6.01161 26.6473 6.81735 25.3044L8.14001 23.0999C8.85458 21.9089 9.21187 21.3135 9.45913 20.6756C9.65124 20.1799 9.79348 19.6664 9.88373 19.1426C9.9999 18.4684 9.9999 17.7739 9.9999 16.385V13.3334Z" fill="#FF9103"/>
<path d="M24.0167 30C24.0996 30 24.1672 30.0673 24.1625 30.15C24.1159 30.9795 23.6835 31.7674 22.9464 32.3571C22.165 32.9822 21.1052 33.3334 20.0001 33.3334C18.895 33.3334 17.8352 32.9822 17.0538 32.3571C16.3167 31.7674 15.8843 30.9795 15.8376 30.15C15.833 30.0673 15.9006 30 15.9834 30L20.0001 30L24.0167 30Z" fill="#FF9103"/>
</svg>
