<svg width="40" height="40" viewBox="0 0 40 40" fill="none" xmlns="http://www.w3.org/2000/svg">
<path d="M9.9999 13.3334C9.9999 11.4748 9.9999 10.5454 10.1536 9.77265C10.7849 6.59913 13.2657 4.11835 16.4392 3.48709C17.212 3.33337 18.1413 3.33337 19.9999 3.33337C21.8585 3.33337 22.7878 3.33337 23.5606 3.48709C26.7341 4.11835 29.2149 6.59913 29.8462 9.77265C29.9999 10.5454 29.9999 11.4748 29.9999 13.3334V16.385C29.9999 17.7739 29.9999 18.4683 30.1161 19.1425C30.2063 19.6664 30.3486 20.1799 30.5407 20.6756C30.788 21.3135 31.1453 21.909 31.8598 23.0999L33.1825 25.3044C33.9883 26.6473 34.3911 27.3188 34.1039 27.8261C33.8167 28.3334 33.0336 28.3334 31.4675 28.3334H8.53234C6.96625 28.3334 6.1832 28.3334 5.89597 27.8261C5.60874 27.3188 6.01161 26.6473 6.81735 25.3044L8.14001 23.0999C8.85458 21.9089 9.21187 21.3135 9.45913 20.6756C9.65124 20.1799 9.79348 19.6664 9.88373 19.1426C9.9999 18.4684 9.9999 17.7739 9.9999 16.385V13.3334Z" fill="#A3A3A3"/>
<path d="M24.0165 30C24.0993 30 24.1669 30.0673 24.1623 30.15C24.1156 30.9795 23.6832 31.7674 22.9461 32.3571C22.1647 32.9822 21.1049 33.3334 19.9998 33.3334C18.8948 33.3334 17.835 32.9822 17.0536 32.3571C16.3164 31.7674 15.884 30.9795 15.8374 30.15C15.8327 30.0673 15.9003 30 15.9832 30L19.9998 30L24.0165 30Z" fill="#A3A3A3"/>
</svg>
