<svg width="40" height="40" viewBox="0 0 40 40" fill="none" xmlns="http://www.w3.org/2000/svg">
<path d="M29.5434 36.1085C29.1597 36.1088 28.788 35.9746 28.4929 35.7293L19.6956 28.3944L10.8983 35.7293C10.6585 35.929 10.3668 36.0562 10.0574 36.0961C9.74792 36.1359 9.43353 36.0867 9.15103 35.9543C8.86854 35.8218 8.62965 35.6116 8.46237 35.3482C8.29509 35.0848 8.20635 34.7792 8.20654 34.4672V6.56518C8.20654 5.69459 8.55239 4.85965 9.16799 4.24404C9.7836 3.62844 10.6185 3.28259 11.4891 3.28259H27.9021C28.7727 3.28259 29.6076 3.62844 30.2232 4.24404C30.8388 4.85965 31.1847 5.69459 31.1847 6.56518V34.4672C31.1845 34.779 31.0954 35.0843 30.928 35.3474C30.7606 35.6104 30.5217 35.8204 30.2393 35.9526C30.0217 36.0555 29.784 36.1087 29.5434 36.1085Z" fill="#FF9103"/>
</svg>
