<svg width="40" height="40" viewBox="0 0 40 40" fill="none" xmlns="http://www.w3.org/2000/svg">
<path d="M29.5429 36.1085C29.1592 36.1088 28.7875 35.9746 28.4925 35.7293L19.6951 28.3944L10.8978 35.7293C10.658 35.929 10.3663 36.0562 10.0569 36.0961C9.74744 36.1359 9.43304 36.0867 9.15054 35.9543C8.86805 35.8218 8.62916 35.6116 8.46188 35.3482C8.2946 35.0848 8.20586 34.7792 8.20606 34.4672V6.56518C8.20606 5.69459 8.5519 4.85965 9.1675 4.24404C9.78311 3.62844 10.618 3.28259 11.4886 3.28259H27.9016C28.7722 3.28259 29.6071 3.62844 30.2227 4.24404C30.8383 4.85965 31.1842 5.69459 31.1842 6.56518V34.4672C31.184 34.779 31.0949 35.0843 30.9275 35.3474C30.7601 35.6104 30.5212 35.8204 30.2388 35.9526C30.0213 36.0555 29.7835 36.1087 29.5429 36.1085Z" fill="#A3A3A3"/>
</svg>
