<svg width="40" height="40" viewBox="0 0 40 40" fill="none" xmlns="http://www.w3.org/2000/svg">
<path d="M35.6276 18.5352L32.345 15.2526L20.8559 3.76351C20.5481 3.45581 20.1307 3.28296 19.6955 3.28296C19.2603 3.28296 18.8429 3.45581 18.5351 3.76351L7.04606 15.2526L3.76347 18.5352C3.46449 18.8447 3.29906 19.2593 3.3028 19.6896C3.30654 20.12 3.47915 20.5316 3.78346 20.836C4.08777 21.1403 4.49942 21.3129 4.92977 21.3166C5.36011 21.3204 5.7747 21.1549 6.08426 20.856L6.56516 20.3751V32.8259C6.56516 33.6965 6.911 34.5315 7.5266 35.1471C8.14221 35.7627 8.97715 36.1085 9.84774 36.1085H14.7716C15.2069 36.1085 15.6244 35.9356 15.9322 35.6278C16.24 35.32 16.4129 34.9025 16.4129 34.4672V27.902C16.4129 27.4667 16.5858 27.0493 16.8936 26.7415C17.2015 26.4337 17.6189 26.2607 18.0542 26.2607H21.3368C21.7721 26.2607 22.1896 26.4337 22.4974 26.7415C22.8052 27.0493 22.9781 27.4667 22.9781 27.902V34.4672C22.9781 34.9025 23.151 35.32 23.4588 35.6278C23.7666 35.9356 24.1841 36.1085 24.6194 36.1085H29.5433C30.4139 36.1085 31.2488 35.7627 31.8644 35.1471C32.48 34.5315 32.8259 33.6965 32.8259 32.8259V20.3751L33.3068 20.856C33.6163 21.1549 34.0309 21.3204 34.4613 21.3166C34.8916 21.3129 35.3033 21.1403 35.6076 20.836C35.9119 20.5316 36.0845 20.12 36.0882 19.6896C36.092 19.2593 35.9265 18.8447 35.6276 18.5352Z" fill="#FF9103"/>
</svg>
