<svg width="40" height="40" viewBox="0 0 40 40" fill="none" xmlns="http://www.w3.org/2000/svg">
<path d="M19.6957 3.28259C16.4495 3.28259 13.2762 4.2452 10.5771 6.04867C7.87803 7.85215 5.77434 10.4155 4.53208 13.4146C3.28983 16.4137 2.9648 19.7137 3.59809 22.8975C4.23139 26.0813 5.79457 29.0059 8.08996 31.3012C10.3854 33.5966 13.3099 35.1598 16.4937 35.7931C19.6775 36.4264 22.9776 36.1014 25.9766 34.8591C28.9757 33.6169 31.5391 31.5132 33.3425 28.8141C35.146 26.115 36.1086 22.9417 36.1086 19.6955C36.1038 15.344 34.3731 11.1721 31.2961 8.09511C28.2191 5.01812 24.0472 3.28737 19.6957 3.28259ZM19.6957 11.4891C20.6695 11.4891 21.6215 11.7778 22.4312 12.3189C23.241 12.8599 23.8721 13.6289 24.2447 14.5287C24.6174 15.4284 24.7149 16.4184 24.5249 17.3736C24.335 18.3287 23.866 19.206 23.1774 19.8947C22.4888 20.5833 21.6114 21.0522 20.6563 21.2422C19.7011 21.4322 18.7111 21.3347 17.8114 20.962C16.9117 20.5893 16.1427 19.9582 15.6016 19.1485C15.0606 18.3388 14.7718 17.3868 14.7718 16.413C14.7718 15.1071 15.2905 13.8546 16.214 12.9312C17.1374 12.0078 18.3898 11.4891 19.6957 11.4891ZM19.6957 32.8259C16.8057 32.8291 13.979 31.9795 11.5696 30.3836C11.76 28.7967 12.5247 27.3342 13.7194 26.2723C14.914 25.2104 16.456 24.6225 18.0544 24.6194H21.337C22.9353 24.6225 24.4773 25.2104 25.672 26.2723C26.8666 27.3342 27.6313 28.7967 27.8217 30.3836C25.4123 31.9795 22.5856 32.8291 19.6957 32.8259Z" fill="#FF9103"/>
</svg>
