<svg width="40" height="40" viewBox="0 0 40 40" fill="none" xmlns="http://www.w3.org/2000/svg">
<path d="M20.0002 3.33337C16.7038 3.33337 13.4815 4.31086 10.7407 6.14221C7.99985 7.97357 5.86364 10.5765 4.60218 13.622C3.34072 16.6674 3.01066 20.0185 3.65375 23.2515C4.29684 26.4846 5.88418 29.4543 8.21506 31.7852C10.5459 34.116 13.5156 35.7034 16.7487 36.3465C19.9817 36.9896 23.3328 36.6595 26.3782 35.398C29.4237 34.1366 32.0266 32.0004 33.858 29.2595C35.6894 26.5187 36.6668 23.2964 36.6668 20C36.662 15.5813 34.9045 11.3448 31.7799 8.22029C28.6554 5.09573 24.419 3.33823 20.0002 3.33337ZM20.0002 11.6667C20.9891 11.6667 21.9558 11.96 22.778 12.5094C23.6003 13.0588 24.2411 13.8397 24.6196 14.7533C24.998 15.6669 25.097 16.6723 24.9041 17.6422C24.7112 18.6121 24.235 19.503 23.5357 20.2022C22.8364 20.9015 21.9455 21.3777 20.9756 21.5706C20.0057 21.7636 19.0004 21.6645 18.0868 21.2861C17.1731 20.9077 16.3922 20.2668 15.8428 19.4446C15.2934 18.6223 15.0002 17.6556 15.0002 16.6667C15.0002 15.3406 15.527 14.0689 16.4646 13.1312C17.4023 12.1935 18.6741 11.6667 20.0002 11.6667ZM20.0002 33.3334C17.0655 33.3366 14.1951 32.4739 11.7485 30.8534C11.9419 29.2418 12.7184 27.7568 13.9315 26.6785C15.1446 25.6002 16.7104 25.0031 18.3335 25H21.6668C23.2899 25.0031 24.8557 25.6002 26.0689 26.6785C27.282 27.7568 28.0585 29.2418 28.2518 30.8534C25.8052 32.4739 22.9348 33.3366 20.0002 33.3334Z" fill="#A3A3A3"/>
</svg>
